<svg width="400" height="400" viewBox="0 0 400 400" fill="none" xmlns="http://www.w3.org/2000/svg">
<g clip-path="url(#clip0_45_2)">
<rect width="400" height="400" rx="42.3776" fill="black"/>
<path d="M214.263 70.7527C210.578 67.0692 205.582 65 200.372 65C195.162 65 190.165 67.0692 186.481 70.7527L55.881 201.333C54.9676 202.246 54.2431 203.331 53.7487 204.524C53.2544 205.717 53 206.996 53 208.288C53 209.58 53.2544 210.859 53.7487 212.052C54.2431 213.246 54.9676 214.33 55.881 215.244C57.7257 217.088 60.2276 218.125 62.8364 218.125C64.1281 218.125 65.4072 217.87 66.6006 217.376C67.794 216.882 68.8784 216.157 69.7917 215.244L82.4843 202.531V306.528C82.4843 314.344 85.5894 321.841 91.1164 327.368C96.6435 332.895 104.14 336 111.956 336H288.788C296.604 336 304.1 332.895 309.627 327.368C315.155 321.841 318.26 314.344 318.26 306.528V202.531L330.952 215.244C332.797 217.088 335.299 218.125 337.908 218.125C340.516 218.125 343.018 217.088 344.863 215.244C346.708 213.399 347.744 210.897 347.744 208.288C347.744 205.679 346.708 203.178 344.863 201.333L298.612 155.101V90.4006C298.612 87.7951 297.577 85.2963 295.734 83.454C293.892 81.6116 291.393 80.5766 288.788 80.5766H269.14C266.534 80.5766 264.035 81.6116 262.193 83.454C260.351 85.2963 259.316 87.7951 259.316 90.4006V115.805L214.263 70.7527ZM298.612 182.883V306.528C298.612 309.133 297.577 311.632 295.734 313.475C293.892 315.317 291.393 316.352 288.788 316.352H111.956C109.351 316.352 106.852 315.317 105.01 313.475C103.167 311.632 102.132 309.133 102.132 306.528V182.883L200.372 84.6437L298.612 182.883Z" fill="white"/>
</g>
<defs>
<clipPath id="clip0_45_2">
<rect width="400" height="400" rx="42.3776" fill="white"/>
</clipPath>
</defs>
</svg>
