<svg width="650" height="650" viewBox="0 0 650 650" fill="none" xmlns="http://www.w3.org/2000/svg">
<rect width="650" height="650" fill="#C7C7C7"/>
<g clip-path="url(#clip0_21_112)">
<path d="M292.062 140.594C292.062 162.764 283.255 184.027 267.578 199.703C251.901 215.38 230.639 224.187 208.468 224.188C186.298 224.187 165.035 215.38 149.359 199.703C133.682 184.027 124.875 162.764 124.875 140.594C124.875 118.423 133.682 97.1609 149.359 81.484C165.035 65.8072 186.298 57 208.468 57C230.639 57 251.901 65.8072 267.578 81.484C283.255 97.1609 292.062 118.423 292.062 140.594ZM433.335 276.116C430.2 274.545 426.65 274 423.187 274.558C419.725 275.116 416.525 276.749 414.042 279.226L289.989 436.716L201.045 344.027C197.834 341.889 193.982 340.928 190.142 341.306C186.303 341.684 182.712 343.378 179.98 346.101L58.0664 491.688V558.562C58.0664 567.431 61.5893 575.936 67.86 582.206C74.1308 588.477 82.6357 592 91.5039 592H559.629C564.02 592 568.368 591.135 572.425 589.455C576.482 587.774 580.168 585.311 583.273 582.206C586.378 579.101 588.841 575.415 590.521 571.358C592.202 567.302 593.066 562.954 593.066 558.562V408.094L433.335 276.116Z" fill="black"/>
</g>
<defs>
<clipPath id="clip0_21_112">
<rect width="535" height="535" fill="white" transform="translate(58 57)"/>
</clipPath>
</defs>
</svg>
