<svg width="200" height="220" viewBox="0 0 200 220" fill="none" xmlns="http://www.w3.org/2000/svg">
<rect width="200" height="220" rx="50" fill="url(#paint0_linear_45_2)"/>
<path d="M107.512 38.4063C105.52 36.3558 102.817 35.2039 100 35.2039C97.1828 35.2039 94.4807 36.3558 92.4882 38.4063L21.8639 111.097C21.3699 111.605 20.9781 112.209 20.7108 112.873C20.4435 113.538 20.3059 114.25 20.3059 114.969C20.3059 115.688 20.4435 116.4 20.7108 117.064C20.9781 117.729 21.3699 118.332 21.8639 118.841C22.8614 119.868 24.2144 120.444 25.6251 120.444C26.3236 120.444 27.0153 120.303 27.6607 120.028C28.306 119.752 28.8924 119.349 29.3864 118.841L36.2501 111.764V169.656C36.2501 174.007 37.9292 178.18 40.9181 181.257C43.907 184.334 47.9607 186.063 52.1876 186.063H147.813C152.04 186.063 156.093 184.334 159.082 181.257C162.071 178.18 163.75 174.007 163.75 169.656V111.764L170.614 118.841C171.611 119.868 172.964 120.444 174.375 120.444C175.786 120.444 177.139 119.868 178.136 118.841C179.134 117.814 179.694 116.421 179.694 114.969C179.694 113.517 179.134 112.124 178.136 111.097L153.125 85.361V49.3438C153.125 47.8934 152.565 46.5024 151.569 45.4768C150.573 44.4512 149.222 43.875 147.813 43.875H137.188C135.779 43.875 134.427 44.4512 133.431 45.4768C132.435 46.5024 131.875 47.8934 131.875 49.3438V63.486L107.512 38.4063ZM153.125 100.827V169.656C153.125 171.107 152.565 172.498 151.569 173.523C150.573 174.549 149.222 175.125 147.813 175.125H52.1876C50.7787 175.125 49.4274 174.549 48.4311 173.523C47.4348 172.498 46.8751 171.107 46.8751 169.656V100.827L100 46.1391L153.125 100.827Z" fill="black"/>
<defs>
<linearGradient id="paint0_linear_45_2" x1="33.5" y1="40" x2="167.5" y2="207.5" gradientUnits="userSpaceOnUse">
<stop stop-color="#E86F05"/>
<stop offset="0.49501" stop-color="#E8B486"/>
<stop offset="1" stop-color="#E86F05"/>
</linearGradient>
</defs>
</svg>
